<?xml version="1.0" encoding="UTF-8"?>
<svg id="_레이어_1" data-name="레이어_1" xmlns="http://www.w3.org/2000/svg" version="1.1" viewBox="0 0 512 512">
  <!-- Generator: Adobe Illustrator 29.3.1, SVG Export Plug-In . SVG Version: 2.1.0 Build 151)  -->
  <defs>
    <style>
      .st0 {
        fill: #fff;
      }

      .st1 {
        display: none;
        fill: #c30d23;
      }
    </style>
  </defs>
  <rect class="st1" x="-16.44" y="-13.28" width="581.91" height="553.65"/>
  <path class="st0" d="M485.1,487.49c-1.59,1.59-6.49,3.31-8.88,3.31-42.21,0-30.51-.06-63.06-.06-12.56,0-24.08-8.97-30.57-19.58l-45.86-83.09c-.22-.4-.76-.5-1.11-.21-1.63,1.35-4.54,6.41-5.11,7.37-12.61,21.23-36.12,73.85-54.3,86.12-7.79,5.25-18.41,9.46-27.79,9.46-120.57,0-65.08.02-203.58.02-12.72-.72-16.45-9.33-11.98-20.65.01-.04.03-.07.05-.1L276.32,34.51s.04-.07.07-.1c11.97-15.24,22.48-19.16,41.21-19.38,3.41-.04,17.55.01,20.95.01,14.5,0,29.26-.19,35.73,3.09,1.46.74,2.76,1.81,3.86,3.11,3.92,4.61,4.31,11.28,1.38,16.58l-184.17,333.97s-.02.04-.03.05c-15.09,21.25,11.2,41.8,28.73,22.95,3.49-3.75,6.77-10.25,9.53-14.82,28.96-47.85,52.94-99.2,82.2-146.95.02-.04.05-.07.08-.11,12.3-14.5,25.01-10.65,34.68,3.82,48.41,72.36,85.87,158.19,133.77,231.59,3.87,5.35,6.07,13.9.79,19.18Z"/>
</svg>